<svg width="30" height="33" viewBox="0 0 30 33" fill="none" xmlns="http://www.w3.org/2000/svg">
<path d="M26.5531 3.08274L12.6722 1.26034C11.577 1.11656 10.5726 1.88781 10.4289 2.98298L7.76036 23.3086C7.61658 24.4037 8.38783 25.4081 9.483 25.5519L23.3639 27.3743C24.4591 27.5181 25.4634 26.7468 25.6072 25.6516L28.2757 5.32606C28.4195 4.23089 27.6482 3.22652 26.5531 3.08274Z" fill="#FFF0F0" stroke="#FF0000" stroke-width="2"/>
<path d="M17.5 7H3.5C2.39543 7 1.5 7.89543 1.5 9V29.5C1.5 30.6046 2.39543 31.5 3.5 31.5H17.5C18.6046 31.5 19.5 30.6046 19.5 29.5V9C19.5 7.89543 18.6046 7 17.5 7Z" fill="#FFF0F0" stroke="#FF0000" stroke-width="2"/>
<path d="M1 12H4.65793C5.19642 12 5.70862 12.2224 6.10161 12.5905C9.02506 15.3292 10.8849 15.0339 13.926 12.4932C14.2994 12.1812 14.7685 12 15.2551 12H19.5" stroke="#FF0000" stroke-width="2"/>
<path d="M9.68319 28.1818V16.3636H10.4403V28.1818H9.68319ZM11.6914 20.2646C11.6544 19.8922 11.4959 19.6029 11.2159 19.3967C10.9358 19.1905 10.5557 19.0874 10.0756 19.0874C9.74936 19.0874 9.47391 19.1335 9.24925 19.2259C9.02458 19.3151 8.85223 19.4397 8.7322 19.5998C8.61525 19.7598 8.55677 19.9414 8.55677 20.1445C8.55062 20.3138 8.58601 20.4615 8.66295 20.5877C8.74297 20.7139 8.85223 20.8232 8.99072 20.9155C9.12922 21.0047 9.28925 21.0832 9.47084 21.1509C9.65242 21.2156 9.84631 21.271 10.0525 21.3171L10.9019 21.5202C11.3143 21.6126 11.6929 21.7357 12.0376 21.8896C12.3823 22.0434 12.6808 22.2327 12.9332 22.4574C13.1856 22.6821 13.381 22.9467 13.5195 23.2514C13.6611 23.5561 13.7334 23.9054 13.7365 24.2994C13.7334 24.878 13.5857 25.3796 13.2933 25.8043C13.004 26.226 12.5854 26.5537 12.0376 26.7876C11.4929 27.0185 10.8358 27.1339 10.0664 27.1339C9.3031 27.1339 8.63833 27.0169 8.07204 26.783C7.50883 26.5491 7.06873 26.2029 6.75173 25.7443C6.43781 25.2827 6.27316 24.7118 6.25777 24.0316H8.19207C8.21362 24.3486 8.30441 24.6133 8.46444 24.8256C8.62756 25.0349 8.84453 25.1934 9.11537 25.3011C9.38928 25.4058 9.69858 25.4581 10.0433 25.4581C10.3818 25.4581 10.6757 25.4089 10.925 25.3104C11.1774 25.2119 11.3728 25.0749 11.5113 24.8995C11.6498 24.7241 11.7191 24.5225 11.7191 24.2947C11.7191 24.0824 11.656 23.9039 11.5298 23.7592C11.4067 23.6146 11.2251 23.4915 10.985 23.3899C10.7481 23.2884 10.4572 23.196 10.1125 23.1129L9.08305 22.8544C8.28594 22.6605 7.65656 22.3574 7.19491 21.945C6.73327 21.5326 6.50398 20.977 6.50706 20.2784C6.50398 19.706 6.65632 19.2058 6.96409 18.7781C7.27493 18.3503 7.70119 18.0163 8.24285 17.7763C8.78452 17.5362 9.40005 17.4162 10.0894 17.4162C10.7911 17.4162 11.4036 17.5362 11.9268 17.7763C12.4531 18.0163 12.8624 18.3503 13.1548 18.7781C13.4472 19.2058 13.598 19.7013 13.6072 20.2646H11.6914Z" fill="#FF0000"/>
</svg>
