<svg width="59" height="59" viewBox="0 0 59 59" fill="none" xmlns="http://www.w3.org/2000/svg">
<g filter="url(#filter0_f_4_82)">
<rect x="19" y="19" width="21" height="21" fill="#D2CEFF"/>
</g>
<path d="M27.7308 22.4231H24.1923C23.2152 22.4231 22.4231 23.2152 22.4231 24.1923V27.7308C22.4231 28.7079 23.2152 29.5 24.1923 29.5H27.7308C28.7079 29.5 29.5 28.7079 29.5 27.7308V24.1923C29.5 23.2152 28.7079 22.4231 27.7308 22.4231Z" stroke="#0066FF" stroke-width="2" stroke-linecap="round" stroke-linejoin="round"/>
<path d="M22.4231 18H19.7692C19.3 18 18.85 18.1864 18.5182 18.5182C18.1864 18.85 18 19.3 18 19.7692V22.4231" stroke="#0066FF" stroke-width="2" stroke-linecap="round" stroke-linejoin="round"/>
<path d="M36.5769 18H39.2308C39.7 18 40.1501 18.1864 40.4818 18.5182C40.8135 18.85 41 19.3 41 19.7692V22.4231" stroke="#0066FF" stroke-width="2" stroke-linecap="round" stroke-linejoin="round"/>
<path d="M22.4231 41H19.7692C19.3 41 18.85 40.8135 18.5182 40.4818C18.1864 40.15 18 39.7 18 39.2308V36.5769" stroke="#0066FF" stroke-width="2" stroke-linecap="round" stroke-linejoin="round"/>
<path d="M36.5769 41H39.2308C39.7 41 40.1501 40.8135 40.4818 40.4818C40.8135 40.15 41 39.7 41 39.2308V36.5769" stroke="#0066FF" stroke-width="2" stroke-linecap="round" stroke-linejoin="round"/>
<path d="M22.4231 33.9231V36.5769H25.0769" stroke="#0066FF" stroke-width="2" stroke-linecap="round" stroke-linejoin="round"/>
<path d="M29.5 36.5769V33.9231H26.8462" stroke="#0066FF" stroke-width="2" stroke-linecap="round" stroke-linejoin="round"/>
<path d="M36.5769 25.0769H33.9231V22.4231" stroke="#0066FF" stroke-width="2" stroke-linecap="round" stroke-linejoin="round"/>
<path d="M36.5769 31.2692V28.6154H33.9231" stroke="#0066FF" stroke-width="2" stroke-linecap="round" stroke-linejoin="round"/>
<path d="M33.9231 33.9231V36.5769H36.5769" stroke="#0066FF" stroke-width="2" stroke-linecap="round" stroke-linejoin="round"/>
<defs>
<filter id="filter0_f_4_82" x="0" y="0" width="59" height="59" filterUnits="userSpaceOnUse" color-interpolation-filters="sRGB">
<feFlood flood-opacity="0" result="BackgroundImageFix"/>
<feBlend mode="normal" in="SourceGraphic" in2="BackgroundImageFix" result="shape"/>
<feGaussianBlur stdDeviation="9.5" result="effect1_foregroundBlur_4_82"/>
</filter>
</defs>
</svg>
