<svg width="172" height="46" viewBox="0 0 172 46" fill="none" xmlns="http://www.w3.org/2000/svg">
<path d="M1.42578 27.2851C2.47236 24.407 6.54353 17.8973 13.8277 15.5111C10.5624 18.6508 4.14687 24.721 1.42578 27.2851Z" fill="#FFF8D8" stroke="black" stroke-width="0.1"/>
<path d="M13.4273 44.28C13.4273 44.4667 12.2807 44.56 9.98734 44.56C7.72068 44.56 6.58734 44.4667 6.58734 44.28V23.68H5.22734C4.58734 23.68 4.14734 23.0933 3.90734 21.92C3.82734 21.5467 3.78734 21.0667 3.78734 20.48C3.78734 19.8933 3.97401 19.2 4.34734 18.4C4.88068 17.2267 5.73401 16.64 6.90734 16.64C7.68068 16.64 8.38734 16.8267 9.02734 17.2C9.69401 17.5467 10.1473 17.88 10.3873 18.2C10.654 18.4933 10.7873 18.6667 10.7873 18.72C12.574 17.3333 14.5073 16.64 16.5873 16.64C18.6673 16.64 20.454 17.4533 21.9473 19.08C23.4407 20.68 24.1873 23.1733 24.1873 26.56C24.1873 29.92 23.4407 32.5333 21.9473 34.4C20.454 36.24 18.5607 37.16 16.2673 37.16C15.2273 37.16 14.2807 37.1067 13.4273 37V44.28ZM15.0673 23.64C14.614 23.64 14.174 23.7867 13.7473 24.08V31.16C14.2007 31.2133 14.5607 31.24 14.8273 31.24C15.1207 31.24 15.3473 31.24 15.5073 31.24C16.6007 31.1333 17.1473 29.7333 17.1473 27.04C17.1473 24.7733 16.454 23.64 15.0673 23.64ZM35.7748 36.96C35.7748 37.1467 34.5615 37.24 32.1348 37.24C29.7082 37.1867 28.4948 37.08 28.4948 36.92V23.64H27.4148C26.9882 23.64 26.6415 23.3867 26.3748 22.88C26.1348 22.3467 26.0148 21.6933 26.0148 20.92C26.0148 18.04 26.8682 16.6 28.5748 16.6C29.7748 16.6 30.7748 16.9733 31.5748 17.72C32.3748 18.44 32.7748 19.2667 32.7748 20.2C33.3348 19.1067 34.0815 18.24 35.0148 17.6C35.9748 16.9333 36.9482 16.6 37.9348 16.6C39.4815 16.6 40.4148 17 40.7348 17.8C40.8148 18.0133 40.8548 18.3333 40.8548 18.76C40.8548 19.16 40.7215 19.8933 40.4548 20.96C40.2148 22.0267 39.9615 22.8 39.6948 23.28C39.4282 23.76 39.2682 24 39.2148 24C39.1615 24 38.9082 23.9067 38.4548 23.72C38.0282 23.5067 37.6415 23.4 37.2948 23.4C36.2815 23.4 35.7748 24.2 35.7748 25.8V36.96ZM57.9942 35.92C56.3142 36.9067 54.1542 37.4 51.5142 37.4C48.8742 37.4 46.6476 36.5067 44.8342 34.72C43.0209 32.9067 42.1142 30.4133 42.1142 27.24C42.1142 24.04 42.9809 21.4667 44.7142 19.52C46.4742 17.5733 48.6876 16.6 51.3542 16.6C54.0209 16.6 56.0742 17.28 57.5142 18.64C58.9809 20 59.7142 21.6533 59.7142 23.6C59.7142 27.92 57.2342 30.08 52.2742 30.08H49.5142C49.5142 30.88 49.7276 31.44 50.1542 31.76C50.6076 32.0533 51.2609 32.2 52.1142 32.2C53.9809 32.2 55.7542 31.7733 57.4342 30.92C57.4609 30.8933 57.5809 31.08 57.7942 31.48C58.4342 32.6267 58.7542 33.6 58.7542 34.4C58.7542 35.1733 58.5009 35.68 57.9942 35.92ZM52.9942 24.36C52.9942 23.24 52.4476 22.68 51.3542 22.68C50.8476 22.68 50.4076 22.84 50.0342 23.16C49.6876 23.4533 49.5142 23.8933 49.5142 24.48V25.72H51.6742C52.5542 25.72 52.9942 25.2667 52.9942 24.36ZM63.1673 29.8C65.3273 31.1067 67.034 31.76 68.2873 31.76C69.0873 31.76 69.4873 31.48 69.4873 30.92C69.4873 30.52 68.794 30 67.4073 29.36C64.074 28 62.4073 25.7733 62.4073 22.68C62.4073 20.7067 63.1273 19.2 64.5673 18.16C66.0073 17.12 67.7273 16.6 69.7273 16.6C71.754 16.6 73.4607 16.8133 74.8473 17.24C76.2607 17.6667 76.9673 18.2267 76.9673 18.92C76.9673 19.5067 76.674 20.28 76.0873 21.24C75.5273 22.2 75.1407 22.72 74.9273 22.8C73.7807 22.16 72.5407 21.84 71.2073 21.84C70.4873 21.84 70.1273 22.0933 70.1273 22.6C70.1273 22.92 70.2607 23.2 70.5273 23.44C70.8207 23.6533 71.3407 23.9333 72.0873 24.28C72.834 24.6 73.4473 24.8933 73.9273 25.16C74.434 25.4267 74.994 25.8 75.6073 26.28C76.8873 27.2933 77.5273 28.6133 77.5273 30.24C77.5273 32.3733 76.8207 34.1067 75.4073 35.44C73.994 36.7467 71.8607 37.4 69.0073 37.4C67.114 37.4 65.394 37.08 63.8473 36.44C62.3007 35.8 61.5273 34.92 61.5273 33.8C61.5273 33.0533 61.7007 32.2667 62.0473 31.44C62.4207 30.6133 62.794 30.0667 63.1673 29.8ZM81.1752 29.8C83.3352 31.1067 85.0418 31.76 86.2952 31.76C87.0952 31.76 87.4952 31.48 87.4952 30.92C87.4952 30.52 86.8018 30 85.4152 29.36C82.0818 28 80.4152 25.7733 80.4152 22.68C80.4152 20.7067 81.1352 19.2 82.5752 18.16C84.0152 17.12 85.7352 16.6 87.7352 16.6C89.7618 16.6 91.4685 16.8133 92.8552 17.24C94.2685 17.6667 94.9752 18.2267 94.9752 18.92C94.9752 19.5067 94.6818 20.28 94.0952 21.24C93.5352 22.2 93.1485 22.72 92.9352 22.8C91.7885 22.16 90.5485 21.84 89.2152 21.84C88.4952 21.84 88.1352 22.0933 88.1352 22.6C88.1352 22.92 88.2685 23.2 88.5352 23.44C88.8285 23.6533 89.3485 23.9333 90.0952 24.28C90.8418 24.6 91.4552 24.8933 91.9352 25.16C92.4418 25.4267 93.0018 25.8 93.6152 26.28C94.8952 27.2933 95.5352 28.6133 95.5352 30.24C95.5352 32.3733 94.8285 34.1067 93.4152 35.44C92.0018 36.7467 89.8685 37.4 87.0152 37.4C85.1218 37.4 83.4018 37.08 81.8552 36.44C80.3085 35.8 79.5352 34.92 79.5352 33.8C79.5352 33.0533 79.7085 32.2667 80.0552 31.44C80.4285 30.6133 80.8018 30.0667 81.1752 29.8ZM102.023 37.08C99.5963 37.08 98.383 36.8133 98.383 36.28V10.36C98.383 9.45333 98.7963 9 99.623 9H106.663C110.61 9 113.45 9.81333 115.183 11.44C116.943 13.0667 117.823 15.4267 117.823 18.52C117.823 21.08 116.996 23.4267 115.343 25.56C114.516 26.6267 113.303 27.48 111.703 28.12C110.103 28.76 108.236 29.08 106.103 29.08V36.24C106.103 36.56 105.596 36.7867 104.583 36.92C103.596 37.0267 102.743 37.08 102.023 37.08ZM106.103 15.96V22.28H106.623C107.556 22.28 108.343 21.9867 108.983 21.4C109.623 20.8133 109.943 19.9867 109.943 18.92C109.943 17.8533 109.716 17.0933 109.263 16.64C108.836 16.1867 108.063 15.96 106.943 15.96H106.103ZM122.66 22.48C121.913 21.1467 121.54 20.0667 121.54 19.24C121.54 18.3867 121.767 17.84 122.22 17.6C123.74 16.9333 125.82 16.6 128.46 16.6C131.127 16.6 133.007 17.2267 134.1 18.48C135.193 19.7067 135.74 21.5333 135.74 23.96V30.28H137.1C137.553 30.28 137.9 30.5467 138.14 31.08C138.407 31.6133 138.54 32.3467 138.54 33.28C138.54 34.2133 138.3 35.1333 137.82 36.04C137.367 36.9467 136.74 37.4 135.94 37.4C134.5 37.4 133.34 37.0133 132.46 36.24C132.06 35.92 131.753 35.5333 131.54 35.08C130.313 36.6267 128.407 37.4 125.82 37.4C123.873 37.4 122.233 36.7067 120.9 35.32C119.567 33.9333 118.9 32.2933 118.9 30.4C118.9 26.0533 121.5 23.88 126.7 23.88H128.9V23.48C128.9 22.7867 128.78 22.3467 128.54 22.16C128.327 21.9467 127.807 21.84 126.98 21.84C125.967 21.84 124.527 22.0533 122.66 22.48ZM125.86 29.84C125.86 30.4267 126.02 30.88 126.34 31.2C126.66 31.4933 127.06 31.64 127.54 31.64C128.047 31.64 128.5 31.44 128.9 31.04V27.96H127.78C126.5 27.96 125.86 28.5867 125.86 29.84ZM139.404 17.2C139.404 16.9067 140.617 16.76 143.044 16.76C145.497 16.76 146.764 16.8933 146.844 17.16L149.724 26.6L152.484 17.08C152.591 16.8667 153.417 16.76 154.964 16.76C158.511 16.76 160.204 16.9333 160.044 17.28L150.644 44.04C150.617 44.2 149.884 44.28 148.444 44.28C147.031 44.28 145.711 44.2267 144.484 44.12C143.257 44.04 142.671 43.9333 142.724 43.8L146.204 35.4L139.404 17.2ZM168.888 28.6C168.888 28.76 167.928 28.84 166.008 28.84C164.115 28.84 163.168 28.7733 163.168 28.64L162.368 8.92C162.368 8.70667 163.582 8.6 166.008 8.6C168.462 8.6 169.688 8.69333 169.688 8.88L168.888 28.6ZM162.288 31C162.288 30.8133 163.515 30.72 165.968 30.72C168.448 30.72 169.688 30.8 169.688 30.96V36.72C169.688 36.9867 168.448 37.12 165.968 37.12C163.515 37.12 162.288 37.04 162.288 36.88V31Z" fill="white"/>
<path d="M13.8992 15.418L2.39138 15.1916L1.24956 27.3537C4.98137 20.5653 7.67654 17.8207 13.8992 15.418Z" fill="#E3DAAD" stroke="black" stroke-width="0.1"/>
<path d="M13.8992 15.418L2.39138 15.1916L1.24956 27.3537C4.98137 20.5653 7.67654 17.8207 13.8992 15.418Z" fill="#E3DAAD" stroke="black" stroke-width="0.1"/>
<path d="M2.3679 15.2218L2.99584 24.3023" stroke="black" stroke-width="0.1"/>
<path d="M2.43583 15.2588L5.20488 21.3228" stroke="black" stroke-width="0.1"/>
<path d="M2.36787 15.1782L6.79974 19.587" stroke="black" stroke-width="0.1"/>
<path d="M2.36818 15.2775L8.54594 18.1454" stroke="black" stroke-width="0.1"/>
<path d="M2.40025 15.2515L11.8388 16.315" stroke="black" stroke-width="0.1"/>
<path d="M12.886 15.9821C12.8337 20.0114 10.6254 27.6932 2.21094 26.1862" stroke="#FF1717" stroke-width="0.3"/>
</svg>
