<svg width="171" height="46" viewBox="0 0 171 46" fill="none" xmlns="http://www.w3.org/2000/svg">
<path d="M1.42578 27.2851C2.47236 24.407 6.54353 17.8973 13.8277 15.5111C10.5624 18.6508 4.14687 24.721 1.42578 27.2851Z" fill="#FFF8D8" stroke="white" stroke-width="0.1"/>
<path d="M12.4273 44.28C12.4273 44.4667 11.2807 44.56 8.98734 44.56C6.72068 44.56 5.58734 44.4667 5.58734 44.28V23.68H4.22734C3.58734 23.68 3.14734 23.0933 2.90734 21.92C2.82734 21.5467 2.78734 21.0667 2.78734 20.48C2.78734 19.8933 2.97401 19.2 3.34734 18.4C3.88068 17.2267 4.73401 16.64 5.90734 16.64C6.68068 16.64 7.38734 16.8267 8.02734 17.2C8.69401 17.5467 9.14734 17.88 9.38734 18.2C9.65401 18.4933 9.78734 18.6667 9.78734 18.72C11.574 17.3333 13.5073 16.64 15.5873 16.64C17.6673 16.64 19.454 17.4533 20.9473 19.08C22.4407 20.68 23.1873 23.1733 23.1873 26.56C23.1873 29.92 22.4407 32.5333 20.9473 34.4C19.454 36.24 17.5607 37.16 15.2673 37.16C14.2273 37.16 13.2807 37.1067 12.4273 37V44.28ZM14.0673 23.64C13.614 23.64 13.174 23.7867 12.7473 24.08V31.16C13.2007 31.2133 13.5607 31.24 13.8273 31.24C14.1207 31.24 14.3473 31.24 14.5073 31.24C15.6007 31.1333 16.1473 29.7333 16.1473 27.04C16.1473 24.7733 15.454 23.64 14.0673 23.64ZM34.7748 36.96C34.7748 37.1467 33.5615 37.24 31.1348 37.24C28.7082 37.1867 27.4948 37.08 27.4948 36.92V23.64H26.4148C25.9882 23.64 25.6415 23.3867 25.3748 22.88C25.1348 22.3467 25.0148 21.6933 25.0148 20.92C25.0148 18.04 25.8682 16.6 27.5748 16.6C28.7748 16.6 29.7748 16.9733 30.5748 17.72C31.3748 18.44 31.7748 19.2667 31.7748 20.2C32.3348 19.1067 33.0815 18.24 34.0148 17.6C34.9748 16.9333 35.9482 16.6 36.9348 16.6C38.4815 16.6 39.4148 17 39.7348 17.8C39.8148 18.0133 39.8548 18.3333 39.8548 18.76C39.8548 19.16 39.7215 19.8933 39.4548 20.96C39.2148 22.0267 38.9615 22.8 38.6948 23.28C38.4282 23.76 38.2682 24 38.2148 24C38.1615 24 37.9082 23.9067 37.4548 23.72C37.0282 23.5067 36.6415 23.4 36.2948 23.4C35.2815 23.4 34.7748 24.2 34.7748 25.8V36.96ZM56.9942 35.92C55.3142 36.9067 53.1542 37.4 50.5142 37.4C47.8742 37.4 45.6476 36.5067 43.8342 34.72C42.0209 32.9067 41.1142 30.4133 41.1142 27.24C41.1142 24.04 41.9809 21.4667 43.7142 19.52C45.4742 17.5733 47.6876 16.6 50.3542 16.6C53.0209 16.6 55.0742 17.28 56.5142 18.64C57.9809 20 58.7142 21.6533 58.7142 23.6C58.7142 27.92 56.2342 30.08 51.2742 30.08H48.5142C48.5142 30.88 48.7276 31.44 49.1542 31.76C49.6076 32.0533 50.2609 32.2 51.1142 32.2C52.9809 32.2 54.7542 31.7733 56.4342 30.92C56.4609 30.8933 56.5809 31.08 56.7942 31.48C57.4342 32.6267 57.7542 33.6 57.7542 34.4C57.7542 35.1733 57.5009 35.68 56.9942 35.92ZM51.9942 24.36C51.9942 23.24 51.4476 22.68 50.3542 22.68C49.8476 22.68 49.4076 22.84 49.0342 23.16C48.6876 23.4533 48.5142 23.8933 48.5142 24.48V25.72H50.6742C51.5542 25.72 51.9942 25.2667 51.9942 24.36ZM62.1673 29.8C64.3273 31.1067 66.034 31.76 67.2873 31.76C68.0873 31.76 68.4873 31.48 68.4873 30.92C68.4873 30.52 67.794 30 66.4073 29.36C63.074 28 61.4073 25.7733 61.4073 22.68C61.4073 20.7067 62.1273 19.2 63.5673 18.16C65.0073 17.12 66.7273 16.6 68.7273 16.6C70.754 16.6 72.4607 16.8133 73.8473 17.24C75.2607 17.6667 75.9673 18.2267 75.9673 18.92C75.9673 19.5067 75.674 20.28 75.0873 21.24C74.5273 22.2 74.1407 22.72 73.9273 22.8C72.7807 22.16 71.5407 21.84 70.2073 21.84C69.4873 21.84 69.1273 22.0933 69.1273 22.6C69.1273 22.92 69.2607 23.2 69.5273 23.44C69.8207 23.6533 70.3407 23.9333 71.0873 24.28C71.834 24.6 72.4473 24.8933 72.9273 25.16C73.434 25.4267 73.994 25.8 74.6073 26.28C75.8873 27.2933 76.5273 28.6133 76.5273 30.24C76.5273 32.3733 75.8207 34.1067 74.4073 35.44C72.994 36.7467 70.8607 37.4 68.0073 37.4C66.114 37.4 64.394 37.08 62.8473 36.44C61.3007 35.8 60.5273 34.92 60.5273 33.8C60.5273 33.0533 60.7007 32.2667 61.0473 31.44C61.4207 30.6133 61.794 30.0667 62.1673 29.8ZM80.1752 29.8C82.3352 31.1067 84.0418 31.76 85.2952 31.76C86.0952 31.76 86.4952 31.48 86.4952 30.92C86.4952 30.52 85.8018 30 84.4152 29.36C81.0818 28 79.4152 25.7733 79.4152 22.68C79.4152 20.7067 80.1352 19.2 81.5752 18.16C83.0152 17.12 84.7352 16.6 86.7352 16.6C88.7618 16.6 90.4685 16.8133 91.8552 17.24C93.2685 17.6667 93.9752 18.2267 93.9752 18.92C93.9752 19.5067 93.6818 20.28 93.0952 21.24C92.5352 22.2 92.1485 22.72 91.9352 22.8C90.7885 22.16 89.5485 21.84 88.2152 21.84C87.4952 21.84 87.1352 22.0933 87.1352 22.6C87.1352 22.92 87.2685 23.2 87.5352 23.44C87.8285 23.6533 88.3485 23.9333 89.0952 24.28C89.8418 24.6 90.4552 24.8933 90.9352 25.16C91.4418 25.4267 92.0018 25.8 92.6152 26.28C93.8952 27.2933 94.5352 28.6133 94.5352 30.24C94.5352 32.3733 93.8285 34.1067 92.4152 35.44C91.0018 36.7467 88.8685 37.4 86.0152 37.4C84.1218 37.4 82.4018 37.08 80.8552 36.44C79.3085 35.8 78.5352 34.92 78.5352 33.8C78.5352 33.0533 78.7085 32.2667 79.0552 31.44C79.4285 30.6133 79.8018 30.0667 80.1752 29.8ZM101.023 37.08C98.5963 37.08 97.383 36.8133 97.383 36.28V10.36C97.383 9.45333 97.7963 9 98.623 9H105.663C109.61 9 112.45 9.81333 114.183 11.44C115.943 13.0667 116.823 15.4267 116.823 18.52C116.823 21.08 115.996 23.4267 114.343 25.56C113.516 26.6267 112.303 27.48 110.703 28.12C109.103 28.76 107.236 29.08 105.103 29.08V36.24C105.103 36.56 104.596 36.7867 103.583 36.92C102.596 37.0267 101.743 37.08 101.023 37.08ZM105.103 15.96V22.28H105.623C106.556 22.28 107.343 21.9867 107.983 21.4C108.623 20.8133 108.943 19.9867 108.943 18.92C108.943 17.8533 108.716 17.0933 108.263 16.64C107.836 16.1867 107.063 15.96 105.943 15.96H105.103ZM121.66 22.48C120.913 21.1467 120.54 20.0667 120.54 19.24C120.54 18.3867 120.767 17.84 121.22 17.6C122.74 16.9333 124.82 16.6 127.46 16.6C130.127 16.6 132.007 17.2267 133.1 18.48C134.193 19.7067 134.74 21.5333 134.74 23.96V30.28H136.1C136.553 30.28 136.9 30.5467 137.14 31.08C137.407 31.6133 137.54 32.3467 137.54 33.28C137.54 34.2133 137.3 35.1333 136.82 36.04C136.367 36.9467 135.74 37.4 134.94 37.4C133.5 37.4 132.34 37.0133 131.46 36.24C131.06 35.92 130.753 35.5333 130.54 35.08C129.313 36.6267 127.407 37.4 124.82 37.4C122.873 37.4 121.233 36.7067 119.9 35.32C118.567 33.9333 117.9 32.2933 117.9 30.4C117.9 26.0533 120.5 23.88 125.7 23.88H127.9V23.48C127.9 22.7867 127.78 22.3467 127.54 22.16C127.327 21.9467 126.807 21.84 125.98 21.84C124.967 21.84 123.527 22.0533 121.66 22.48ZM124.86 29.84C124.86 30.4267 125.02 30.88 125.34 31.2C125.66 31.4933 126.06 31.64 126.54 31.64C127.047 31.64 127.5 31.44 127.9 31.04V27.96H126.78C125.5 27.96 124.86 28.5867 124.86 29.84ZM138.404 17.2C138.404 16.9067 139.617 16.76 142.044 16.76C144.497 16.76 145.764 16.8933 145.844 17.16L148.724 26.6L151.484 17.08C151.591 16.8667 152.417 16.76 153.964 16.76C157.511 16.76 159.204 16.9333 159.044 17.28L149.644 44.04C149.617 44.2 148.884 44.28 147.444 44.28C146.031 44.28 144.711 44.2267 143.484 44.12C142.257 44.04 141.671 43.9333 141.724 43.8L145.204 35.4L138.404 17.2ZM167.888 28.6C167.888 28.76 166.928 28.84 165.008 28.84C163.115 28.84 162.168 28.7733 162.168 28.64L161.368 8.92C161.368 8.70667 162.582 8.6 165.008 8.6C167.462 8.6 168.688 8.69333 168.688 8.88L167.888 28.6ZM161.288 31C161.288 30.8133 162.515 30.72 164.968 30.72C167.448 30.72 168.688 30.8 168.688 30.96V36.72C168.688 36.9867 167.448 37.12 164.968 37.12C162.515 37.12 161.288 37.04 161.288 36.88V31Z" fill="#0094FF"/>
<path d="M13.8992 15.418L2.39138 15.1916L1.24956 27.3537C4.98137 20.5653 7.67654 17.8207 13.8992 15.418Z" fill="#E3DAAD" stroke="white" stroke-width="0.1"/>
<path d="M13.8992 15.418L2.39138 15.1916L1.24956 27.3537C4.98137 20.5653 7.67654 17.8207 13.8992 15.418Z" fill="#E3DAAD" stroke="white" stroke-width="0.1"/>
<path d="M2.3679 15.2218L2.99584 24.3023" stroke="white" stroke-width="0.1"/>
<path d="M2.43583 15.2588L5.20488 21.3228" stroke="white" stroke-width="0.1"/>
<path d="M2.36787 15.1783L6.79974 19.587" stroke="white" stroke-width="0.1"/>
<path d="M2.36818 15.2776L8.54594 18.1455" stroke="white" stroke-width="0.1"/>
<path d="M2.40025 15.2515L11.8388 16.315" stroke="white" stroke-width="0.1"/>
<path d="M12.886 15.9821C12.8337 20.0114 10.6254 27.6932 2.21094 26.1862" stroke="#FF1717" stroke-width="0.3"/>
</svg>
