<svg width="22" height="17" viewBox="0 0 22 17" fill="none" xmlns="http://www.w3.org/2000/svg">
<path d="M18.6912 11.1533V14.23C18.6912 14.638 18.5291 15.0294 18.2407 15.3178C17.9522 15.6063 17.5609 15.7684 17.1529 15.7684H2.53837C2.13036 15.7684 1.73908 15.6063 1.45058 15.3178C1.16208 15.0294 1 14.638 1 14.23V1.9231" stroke="black" stroke-width="2" stroke-linecap="round" stroke-linejoin="round"/>
<path d="M20.2306 6.53827H14.8463C14.4215 6.53827 14.0771 6.88265 14.0771 7.30745V10.3842C14.0771 10.8089 14.4215 11.1534 14.8463 11.1534H20.2306C20.6554 11.1534 20.9998 10.8089 20.9998 10.3842V7.30745C20.9998 6.88265 20.6554 6.53827 20.2306 6.53827Z" stroke="black" stroke-width="2" stroke-linecap="round" stroke-linejoin="round"/>
<path d="M18.6916 6.5382V3.46146C18.6916 3.05346 18.5294 2.66217 18.241 2.37367C17.9526 2.08518 17.5612 1.9231 17.1532 1.9231H15.6149H1.76953" stroke="black" stroke-width="2" stroke-linecap="round" stroke-linejoin="round"/>
<path d="M1 5.76902V2.0231C1 1.96787 1.04477 1.9231 1.1 1.9231H5.61511" stroke="black" stroke-width="2"/>
</svg>
