<svg width="15" height="15" viewBox="0 0 15 15" fill="none" xmlns="http://www.w3.org/2000/svg">
<path d="M4.12914 4.1244C5.12188 3.4793 6.2722 3 7.49997 3C10.29 3 12.68 5.47503 13.73 6.7463C13.8958 6.95302 13.9876 7.22159 13.9876 7.50006C13.9876 7.77853 13.8958 8.0471 13.73 8.25382C13.1512 8.95457 12.1652 10.0211 10.9296 10.8372M8.99997 11.7697C8.51759 11.9156 8.01561 12.0001 7.49997 12.0001C4.70997 12.0001 2.31997 9.52509 1.26997 8.25382C1.10413 8.0471 1.01233 7.77853 1.01233 7.50006C1.01233 7.22159 1.10413 6.95302 1.26997 6.7463C1.60264 6.34352 2.06982 5.81991 2.64162 5.29247" stroke="#040404" stroke-width="1.5" stroke-linecap="round" stroke-linejoin="round"/>
<path d="M8.91421 8.91427C9.69526 8.13322 9.69526 6.86689 8.91421 6.08584C8.13316 5.3048 6.86683 5.3048 6.08578 6.08584" stroke="#040404" stroke-width="1.5" stroke-linecap="round" stroke-linejoin="round"/>
<path d="M14 14L1 1" stroke="#040404" stroke-width="1.5" stroke-linecap="round" stroke-linejoin="round"/>
</svg>
