<svg width="30" height="30" viewBox="0 0 30 30" fill="none" xmlns="http://www.w3.org/2000/svg">
<g clip-path="url(#clip0_2_1509)">
<path d="M27.6643 11.786H2.33572C1.13573 11.786 0.621447 10.4788 1.5643 9.8574L14.2286 1.56454C14.4624 1.42699 14.7287 1.35446 15 1.35446C15.2713 1.35446 15.5376 1.42699 15.7714 1.56454L28.4357 9.8574C29.3786 10.4788 28.8643 11.786 27.6643 11.786Z" stroke="#0094FF" stroke-opacity="0.91" stroke-width="2" stroke-linecap="round" stroke-linejoin="round"/>
<path d="M27.7385 29.4001H2.26161C1.67534 29.4001 1.20007 29.4001 1.20007 29.4001V29.4002C1.20007 29.4002 1.67534 29.4002 2.26161 29.4002H27.7385C28.3247 29.4002 28.8001 29.4002 28.8001 29.4002V29.4001C28.8001 29.4001 28.3247 29.4001 27.7385 29.4001Z" stroke="#0094FF" stroke-opacity="0.91" stroke-width="2" stroke-linecap="round" stroke-linejoin="round"/>
<path d="M4.28571 11.7857V28.7857" stroke="#0094FF" stroke-opacity="0.91" stroke-width="2" stroke-linecap="round" stroke-linejoin="round"/>
<path d="M9.02856 11.7858V28.7858" stroke="#0094FF" stroke-opacity="0.91" stroke-width="2" stroke-linecap="round" stroke-linejoin="round"/>
<path d="M20.9714 11.7858V28.7858" stroke="#0094FF" stroke-opacity="0.91" stroke-width="2" stroke-linecap="round" stroke-linejoin="round"/>
<path d="M25.7143 11.7857V28.7857" stroke="#0094FF" stroke-opacity="0.91" stroke-width="2" stroke-linecap="round" stroke-linejoin="round"/>
<circle cx="15" cy="7.8" r="1.8" fill="#0094FF" fill-opacity="0.91"/>
<path d="M14.4393 26.0909V15.1818H15.1381V26.0909H14.4393ZM16.2929 18.7827C16.2589 18.4389 16.1125 18.1719 15.854 17.9815C15.5955 17.7912 15.2447 17.696 14.8015 17.696C14.5003 17.696 14.2461 17.7386 14.0387 17.8239C13.8313 17.9062 13.6722 18.0213 13.5614 18.169C13.4535 18.3168 13.3995 18.4844 13.3995 18.6719C13.3938 18.8281 13.4265 18.9645 13.4975 19.081C13.5714 19.1974 13.6722 19.2983 13.8 19.3835C13.9279 19.4659 14.0756 19.5384 14.2432 19.6009C14.4108 19.6605 14.5898 19.7116 14.7802 19.7543L15.5643 19.9418C15.9449 20.027 16.2944 20.1406 16.6125 20.2827C16.9307 20.4247 17.2063 20.5994 17.4393 20.8068C17.6722 21.0142 17.8526 21.2585 17.9804 21.5398C18.1111 21.821 18.1779 22.1435 18.1807 22.5071C18.1779 23.0412 18.0415 23.5043 17.7716 23.8963C17.5046 24.2855 17.1182 24.5881 16.6125 24.804C16.1097 25.017 15.5032 25.1236 14.7929 25.1236C14.0884 25.1236 13.4748 25.0156 12.952 24.7997C12.4322 24.5838 12.0259 24.2642 11.7333 23.8409C11.4435 23.4148 11.2915 22.8878 11.2773 22.2599H13.0628C13.0827 22.5526 13.1665 22.7969 13.3143 22.9929C13.4648 23.1861 13.6651 23.3324 13.9151 23.4318C14.1679 23.5284 14.4535 23.5767 14.7716 23.5767C15.0841 23.5767 15.3554 23.5312 15.5856 23.4403C15.8185 23.3494 15.9989 23.223 16.1268 23.0611C16.2546 22.8991 16.3185 22.7131 16.3185 22.5028C16.3185 22.3068 16.2603 22.142 16.1438 22.0085C16.0302 21.875 15.8625 21.7614 15.641 21.6676C15.4222 21.5739 15.1537 21.4886 14.8356 21.4119L13.8853 21.1733C13.1495 20.9943 12.5685 20.7145 12.1424 20.3338C11.7162 19.9531 11.5046 19.4403 11.5074 18.7955C11.5046 18.267 11.6452 17.8054 11.9293 17.4105C12.2162 17.0156 12.6097 16.7074 13.1097 16.4858C13.6097 16.2642 14.1779 16.1534 14.8143 16.1534C15.462 16.1534 16.0273 16.2642 16.5103 16.4858C16.9961 16.7074 17.3739 17.0156 17.6438 17.4105C17.9137 17.8054 18.0529 18.2628 18.0614 18.7827H16.2929Z" fill="#0094FF" fill-opacity="0.91"/>
</g>
<defs>
<clipPath id="clip0_2_1509">
<rect width="30" height="30" fill="white"/>
</clipPath>
</defs>
</svg>
