<svg width="27" height="27" viewBox="0 0 27 27" fill="none" xmlns="http://www.w3.org/2000/svg">
<path d="M13.5 26C20.4037 26 26 20.4037 26 13.5C26 6.59644 20.4037 1 13.5 1C6.59644 1 1 6.59644 1 13.5C1 20.4037 6.59644 26 13.5 26Z" stroke="#0094FF" stroke-width="2" stroke-linecap="round" stroke-linejoin="round"/>
<path d="M13.5001 15.423C16.1553 15.423 18.3078 13.2705 18.3078 10.6153C18.3078 7.9601 16.1553 5.80762 13.5001 5.80762C10.8449 5.80762 8.69238 7.9601 8.69238 10.6153C8.69238 13.2705 10.8449 15.423 13.5001 15.423Z" stroke="#0094FF" stroke-width="2" stroke-linecap="round" stroke-linejoin="round"/>
<path d="M5.28857 22.9229C6.14673 21.5142 7.35282 20.35 8.7909 19.5423C10.229 18.7344 11.8507 18.3101 13.5001 18.3101C15.1496 18.3101 16.7712 18.7344 18.2093 19.5423C19.6475 20.35 20.8534 21.5142 21.7117 22.9229" stroke="#0094FF" stroke-width="2" stroke-linecap="round" stroke-linejoin="round"/>
</svg>
