<svg width="30" height="30" viewBox="0 0 30 30" fill="none" xmlns="http://www.w3.org/2000/svg">
<g clip-path="url(#clip0_383_934)">
<path d="M27.6644 11.786H2.33585C1.13585 11.786 0.621569 10.4789 1.56443 9.85743L14.2287 1.56457C14.4625 1.42702 14.7289 1.35449 15.0001 1.35449C15.2714 1.35449 15.5378 1.42702 15.7716 1.56457L28.4359 9.85743C29.3787 10.4789 28.8644 11.786 27.6644 11.786Z" stroke="#0094FF" stroke-opacity="0.91" stroke-width="2" stroke-linecap="round" stroke-linejoin="round"/>
<path d="M27.7387 29.4001H2.26173C1.67546 29.4001 1.2002 29.4002 1.2002 29.4002V29.4002C1.2002 29.4002 1.67546 29.4002 2.26173 29.4002H27.7387C28.3248 29.4002 28.8002 29.4002 28.8002 29.4002V29.4002C28.8002 29.4002 28.3248 29.4001 27.7387 29.4001Z" stroke="#0094FF" stroke-opacity="0.91" stroke-width="2" stroke-linecap="round" stroke-linejoin="round"/>
<path d="M4.28564 11.7858V28.7858" stroke="#0094FF" stroke-opacity="0.91" stroke-width="2" stroke-linecap="round" stroke-linejoin="round"/>
<path d="M9.02881 11.7858V28.7858" stroke="#0094FF" stroke-opacity="0.91" stroke-width="2" stroke-linecap="round" stroke-linejoin="round"/>
<path d="M20.9717 11.7858V28.7858" stroke="#0094FF" stroke-opacity="0.91" stroke-width="2" stroke-linecap="round" stroke-linejoin="round"/>
<path d="M25.7144 11.7858V28.7858" stroke="#0094FF" stroke-opacity="0.91" stroke-width="2" stroke-linecap="round" stroke-linejoin="round"/>
<circle cx="15.0002" cy="7.8" r="1.8" fill="#0094FF" fill-opacity="0.91"/>
<path d="M14.439 26.0909V15.1818H15.1379V26.0909H14.439ZM16.2927 18.7827C16.2586 18.4389 16.1123 18.1719 15.8538 17.9815C15.5953 17.7912 15.2444 17.696 14.8012 17.696C14.5001 17.696 14.2458 17.7386 14.0384 17.8239C13.8311 17.9062 13.672 18.0213 13.5612 18.169C13.4532 18.3168 13.3992 18.4844 13.3992 18.6719C13.3936 18.8281 13.4262 18.9645 13.4972 19.081C13.5711 19.1974 13.672 19.2983 13.7998 19.3835C13.9276 19.4659 14.0754 19.5384 14.243 19.6009C14.4106 19.6605 14.5896 19.7116 14.7799 19.7543L15.564 19.9418C15.9447 20.027 16.2941 20.1406 16.6123 20.2827C16.9305 20.4247 17.2061 20.5994 17.439 20.8068C17.672 21.0142 17.8524 21.2585 17.9802 21.5398C18.1109 21.821 18.1776 22.1435 18.1805 22.5071C18.1776 23.0412 18.0413 23.5043 17.7714 23.8963C17.5044 24.2855 17.118 24.5881 16.6123 24.804C16.1095 25.017 15.5029 25.1236 14.7927 25.1236C14.0882 25.1236 13.4745 25.0156 12.9518 24.7997C12.4319 24.5838 12.0257 24.2642 11.733 23.8409C11.4433 23.4148 11.2913 22.8878 11.2771 22.2599H13.0626C13.0825 22.5526 13.1663 22.7969 13.314 22.9929C13.4646 23.1861 13.6649 23.3324 13.9149 23.4318C14.1677 23.5284 14.4532 23.5767 14.7714 23.5767C15.0839 23.5767 15.3552 23.5312 15.5853 23.4403C15.8183 23.3494 15.9987 23.223 16.1265 23.0611C16.2544 22.8991 16.3183 22.7131 16.3183 22.5028C16.3183 22.3068 16.26 22.142 16.1436 22.0085C16.0299 21.875 15.8623 21.7614 15.6407 21.6676C15.422 21.5739 15.1535 21.4886 14.8353 21.4119L13.885 21.1733C13.1492 20.9943 12.5683 20.7145 12.1421 20.3338C11.716 19.9531 11.5044 19.4403 11.5072 18.7955C11.5044 18.267 11.645 17.8054 11.9291 17.4105C12.216 17.0156 12.6095 16.7074 13.1095 16.4858C13.6095 16.2642 14.1776 16.1534 14.814 16.1534C15.4617 16.1534 16.0271 16.2642 16.51 16.4858C16.9958 16.7074 17.3737 17.0156 17.6436 17.4105C17.9134 17.8054 18.0526 18.2628 18.0612 18.7827H16.2927Z" fill="#0094FF" fill-opacity="0.91"/>
</g>
<defs>
<clipPath id="clip0_383_934">
<rect width="30" height="30" fill="white"/>
</clipPath>
</defs>
</svg>
