<svg width="15" height="11" viewBox="0 0 15 11" fill="none" xmlns="http://www.w3.org/2000/svg">
<path d="M13.7177 4.7463C13.8835 4.95302 13.9753 5.22159 13.9753 5.50006C13.9753 5.77853 13.8835 6.0471 13.7177 6.25382C12.6677 7.52509 10.2776 10.0001 7.48764 10.0001C4.69764 10.0001 2.30764 7.52509 1.25764 6.25382C1.0918 6.0471 1 5.77853 1 5.50006C1 5.22159 1.0918 4.95302 1.25764 4.7463C2.30764 3.47503 4.69764 1 7.48764 1C10.2776 1 12.6677 3.47503 13.7177 4.7463Z" stroke="black" stroke-width="1.5" stroke-linecap="round" stroke-linejoin="round"/>
<path d="M7.48767 7.5C8.59224 7.5 9.48767 6.60457 9.48767 5.5C9.48767 4.39543 8.59224 3.5 7.48767 3.5C6.3831 3.5 5.48767 4.39543 5.48767 5.5C5.48767 6.60457 6.3831 7.5 7.48767 7.5Z" stroke="black" stroke-width="1.5" stroke-linecap="round" stroke-linejoin="round"/>
</svg>
