<svg width="30" height="30" viewBox="0 0 30 30" fill="none" xmlns="http://www.w3.org/2000/svg">
<g clip-path="url(#clip0_2_1520)">
<path d="M1.07141 10.7857H28.9286V26.9127C28.9286 27.4473 28.7027 27.9601 28.3009 28.3381C27.8991 28.7161 27.354 28.9286 26.7857 28.9286H3.21427C2.64594 28.9286 2.1009 28.7161 1.69904 28.3381C1.29718 27.9601 1.07141 27.4473 1.07141 26.9127V10.7857Z" stroke="#0094FF" stroke-width="2" stroke-linecap="round" stroke-linejoin="round"/>
<path d="M0.857117 10.2857L4.12085 6.57C4.47271 6.1512 5.01113 5.79702 5.67822 5.54556C6.34531 5.29409 7.11579 5.15487 7.90679 5.14285H22.0932C22.9028 5.14311 23.6961 5.27681 24.3843 5.52893C25.0723 5.78104 25.6276 6.14158 25.9879 6.57L29.1428 10.2857" stroke="#0094FF" stroke-width="2" stroke-linecap="round" stroke-linejoin="round"/>
<path d="M14.5314 25.4155V12.6883H15.3467V25.4155H14.5314ZM16.694 16.8893C16.6543 16.4882 16.4836 16.1767 16.182 15.9546C15.8803 15.7325 15.471 15.6215 14.954 15.6215C14.6026 15.6215 14.306 15.6712 14.0641 15.7707C13.8221 15.8668 13.6365 16.001 13.5072 16.1734C13.3813 16.3457 13.3183 16.5413 13.3183 16.76C13.3117 16.9423 13.3498 17.1014 13.4327 17.2373C13.5188 17.3732 13.6365 17.4908 13.7856 17.5903C13.9348 17.6864 14.1071 17.7709 14.3027 17.8438C14.4982 17.9134 14.707 17.9731 14.9291 18.0228L15.8439 18.2415C16.288 18.341 16.6957 18.4736 17.0669 18.6393C17.4381 18.805 17.7596 19.0088 18.0314 19.2508C18.3032 19.4927 18.5136 19.7778 18.6628 20.1059C18.8152 20.434 18.8931 20.8102 18.8964 21.2344C18.8931 21.8575 18.734 22.3978 18.4192 22.8552C18.1076 23.3093 17.6569 23.6622 17.0669 23.9141C16.4802 24.1627 15.7726 24.287 14.944 24.287C14.1221 24.287 13.4061 24.1611 12.7963 23.9092C12.1898 23.6573 11.7158 23.2844 11.3744 22.7905C11.0364 22.2934 10.859 21.6786 10.8425 20.9461H12.9256C12.9488 21.2875 13.0465 21.5725 13.2189 21.8012C13.3945 22.0266 13.6282 22.1973 13.9199 22.3133C14.2149 22.426 14.548 22.4823 14.9192 22.4823C15.2838 22.4823 15.6003 22.4293 15.8687 22.3232C16.1405 22.2172 16.351 22.0697 16.5001 21.8807C16.6493 21.6918 16.7239 21.4747 16.7239 21.2295C16.7239 21.0008 16.6559 20.8085 16.52 20.6528C16.3874 20.497 16.1919 20.3644 15.9334 20.255C15.6782 20.1457 15.365 20.0462 14.9937 19.9567L13.8851 19.6783C13.0266 19.4695 12.3489 19.1431 11.8517 18.6989C11.3545 18.2548 11.1076 17.6566 11.1109 16.9042C11.1076 16.2877 11.2717 15.7491 11.6031 15.2884C11.9379 14.8277 12.3969 14.4681 12.9802 14.2096C13.5636 13.9511 14.2265 13.8218 14.9689 13.8218C15.7246 13.8218 16.3841 13.9511 16.9476 14.2096C17.5143 14.4681 17.9552 14.8277 18.27 15.2884C18.5849 15.7491 18.7473 16.2827 18.7572 16.8893H16.694Z" fill="#0094FF"/>
<rect x="9.42859" y="6.85715" width="11.1429" height="1.71429" rx="0.857143" fill="#0094FF"/>
</g>
<defs>
<clipPath id="clip0_2_1520">
<rect width="30" height="30" fill="white"/>
</clipPath>
</defs>
</svg>
