<svg width="21" height="21" viewBox="0 0 21 21" fill="none" xmlns="http://www.w3.org/2000/svg">
<path d="M5.47017 5.37723C6.88837 4.47346 8.53168 3.80197 10.2856 3.80197C14.2714 3.80197 17.6857 7.26944 19.1857 9.05047C19.4225 9.34008 19.5537 9.71634 19.5537 10.1065C19.5537 10.4966 19.4225 10.8729 19.1857 11.1625C18.3588 12.1442 16.9503 13.6384 15.1851 14.7817M12.4285 16.0882C11.7394 16.2926 11.0223 16.4109 10.2856 16.4109C6.29992 16.4109 2.88564 12.9435 1.38563 11.1625C1.14872 10.8729 1.01758 10.4966 1.01758 10.1065C1.01758 9.71634 1.14872 9.34008 1.38563 9.05047C1.86088 8.48618 2.52828 7.75261 3.34514 7.01368" stroke="white" stroke-width="2" stroke-linecap="round" stroke-linejoin="round"/>
<path d="M12.306 12.0877C13.4218 10.9935 13.4218 9.21941 12.306 8.12517C11.1902 7.03095 9.38117 7.03095 8.26538 8.12517" stroke="white" stroke-width="2" stroke-linecap="round" stroke-linejoin="round"/>
<path d="M19.5714 19.2128L1 1" stroke="white" stroke-width="2" stroke-linecap="round" stroke-linejoin="round"/>
</svg>
