<svg width="22" height="30" viewBox="0 0 22 30" fill="none" xmlns="http://www.w3.org/2000/svg">
<path d="M1.31006 12.2596C2.2716 9.6154 6.01198 3.63463 12.7043 1.44232C9.70429 4.32694 3.81006 9.90386 1.31006 12.2596Z" fill="#FFF8D8" stroke="black" stroke-width="0.1"/>
<path d="M12.7699 1.3568L2.19708 1.14884L1.14804 12.3227C4.57663 6.08587 7.05281 3.56431 12.7699 1.3568Z" fill="#E3DAAD" stroke="black" stroke-width="0.1"/>
<path d="M1.31006 12.2596C2.2716 9.6154 6.01198 3.63463 12.7043 1.44232C9.70429 4.32694 3.81006 9.90386 1.31006 12.2596Z" fill="#FFF8D8" stroke="black" stroke-width="0.1"/>
<path d="M11.7796 28.552C11.7796 28.72 10.7476 28.804 8.68362 28.804C6.64362 28.804 5.62362 28.72 5.62362 28.552V10.012H4.39962C3.82362 10.012 3.42762 9.484 3.21162 8.428C3.13962 8.092 3.10362 7.66 3.10362 7.132C3.10362 6.604 3.27162 5.98 3.60762 5.26C4.08762 4.204 4.85562 3.676 5.91162 3.676C6.60762 3.676 7.24362 3.844 7.81962 4.18C8.41962 4.492 8.82762 4.792 9.04362 5.08C9.28362 5.344 9.40362 5.5 9.40362 5.548C11.0116 4.3 12.7516 3.676 14.6236 3.676C16.4956 3.676 18.1036 4.408 19.4476 5.872C20.7916 7.312 21.4636 9.556 21.4636 12.604C21.4636 15.628 20.7916 17.98 19.4476 19.66C18.1036 21.316 16.3996 22.144 14.3356 22.144C13.3996 22.144 12.5476 22.096 11.7796 22V28.552ZM13.2556 9.976C12.8476 9.976 12.4516 10.108 12.0676 10.372V16.744C12.4756 16.792 12.7996 16.816 13.0396 16.816C13.3036 16.816 13.5076 16.816 13.6516 16.816C14.6356 16.72 15.1276 15.46 15.1276 13.036C15.1276 10.996 14.5036 9.976 13.2556 9.976Z" fill="#0094FF"/>
<path d="M12.7699 1.35674L2.19705 1.14879L1.14804 12.3226C4.57663 6.08581 7.05281 3.56425 12.7699 1.35674Z" fill="#E3DAAD" stroke="black" stroke-width="0.1"/>
<path d="M2.17541 1.1765L2.75234 9.51924" stroke="black" stroke-width="0.1"/>
<path d="M2.23807 1.21054L4.78213 6.78182" stroke="black" stroke-width="0.1"/>
<path d="M2.17521 1.13648L6.24698 5.18699" stroke="black" stroke-width="0.1"/>
<path d="M2.17527 1.2277L7.85108 3.86257" stroke="black" stroke-width="0.1"/>
<path d="M2.20537 1.20382L10.877 2.18091" stroke="black" stroke-width="0.1"/>
<path d="M11.8389 1.875C11.7909 5.57692 9.76202 12.6346 2.03125 11.25" stroke="#FF1717" stroke-width="0.5"/>
</svg>
