<svg width="26" height="30" viewBox="0 0 26 30" fill="none" xmlns="http://www.w3.org/2000/svg">
<path fill-rule="evenodd" clip-rule="evenodd" d="M7.19391 28.9831L7.71171 25.6808L6.55825 25.6538H1.05029L4.87813 1.28462C4.89006 1.21082 4.92861 1.14232 4.98491 1.09359C5.04148 1.04486 5.11359 1.01813 5.18903 1.01813H14.4763C17.5598 1.01813 19.6875 1.66221 20.7982 2.93367C21.3191 3.53014 21.6508 4.15362 21.8114 4.83948C21.9797 5.5593 21.9825 6.4192 21.8183 7.46817L21.8064 7.54447V8.21668L22.3272 8.51296C22.7657 8.74659 23.1143 9.01392 23.3817 9.31995C23.8271 9.83009 24.1152 10.4784 24.237 11.2466C24.3629 12.0369 24.3213 12.9776 24.1152 14.0424C23.8775 15.2671 23.4934 16.3339 22.9745 17.2066C22.4975 18.0108 21.8896 18.678 21.1677 19.1948C20.4785 19.686 19.6598 20.0589 18.734 20.2975C17.8368 20.532 16.814 20.6503 15.6921 20.6503H14.9694C14.4527 20.6503 13.9507 20.8372 13.5566 21.1722C13.1614 21.5141 12.9002 21.9814 12.82 22.4924L12.7654 22.7898L11.8504 28.6105L11.8091 28.8241C11.798 28.8917 11.7792 28.9254 11.7514 28.9482C11.7267 28.9691 11.6912 28.9831 11.6566 28.9831H7.19391Z" fill="#28356A"/>
<path fill-rule="evenodd" clip-rule="evenodd" d="M22.8205 7.62213C22.793 7.80007 22.7611 7.98191 22.7256 8.16875C21.5009 14.4826 17.3106 16.6638 11.959 16.6638H9.23417C8.57965 16.6638 8.02802 17.1408 7.92624 17.7891L6.13601 29.1908C6.06973 29.6165 6.39643 30 6.82409 30H11.657C12.2292 30 12.7153 29.5826 12.8055 29.0159L12.8529 28.7694L13.7628 22.9716L13.8214 22.6536C13.9104 22.0849 14.3977 21.6672 14.9698 21.6672H15.6926C20.3749 21.6672 24.0405 19.7587 25.1119 14.2351C25.5592 11.9277 25.3276 10.001 24.1434 8.64604C23.7851 8.23753 23.3405 7.89837 22.8205 7.62213Z" fill="#298FC2"/>
<path fill-rule="evenodd" clip-rule="evenodd" d="M21.539 7.10921C21.3518 7.05435 21.1588 7.00479 20.9607 6.95995C20.7616 6.91624 20.5578 6.87753 20.3478 6.84356C19.6131 6.72437 18.808 6.66785 17.9458 6.66785H10.6664C10.487 6.66785 10.3167 6.7085 10.1645 6.78202C9.82861 6.94408 9.57928 7.2632 9.51882 7.65388L7.97016 17.502L7.92578 17.7891C8.02756 17.1408 8.57919 16.6638 9.23371 16.6638H11.9586C17.3101 16.6638 21.5004 14.4815 22.7252 8.16876C22.7618 7.98191 22.7926 7.80008 22.82 7.62214C22.5102 7.45701 22.1746 7.31583 21.8133 7.19553C21.724 7.16574 21.6319 7.13706 21.539 7.10921Z" fill="#22284F"/>
<path fill-rule="evenodd" clip-rule="evenodd" d="M9.51904 7.65383C9.5795 7.26315 9.82883 6.94403 10.1647 6.78308C10.3181 6.70929 10.4872 6.66863 10.6667 6.66863H17.946C18.8082 6.66863 19.6134 6.72544 20.348 6.84462C20.558 6.87832 20.7618 6.9173 20.961 6.96102C21.159 7.00557 21.352 7.05542 21.5392 7.11C21.6321 7.13784 21.7242 7.1668 21.8143 7.19548C22.1757 7.31578 22.5116 7.45808 22.8213 7.62209C23.1858 5.28885 22.8183 3.70022 21.5619 2.26168C20.1766 0.677779 17.6767 0 14.4776 0H5.19005C4.53663 0 3.97918 0.477007 3.87823 1.12638L0.00989996 25.7461C-0.0663684 26.2332 0.307763 26.6726 0.796989 26.6726H6.5307L9.51904 7.65383Z" fill="#28356A"/>
</svg>
