<svg width="30" height="10" viewBox="0 0 30 10" fill="none" xmlns="http://www.w3.org/2000/svg">
<path d="M13 8.98162H10.5698L12.0898 0.159912H14.5199L13 8.98162Z" fill="#15195A"/>
<path d="M21.8094 0.375575C21.3301 0.19708 20.5698 0 19.6298 0C17.2299 0 15.5399 1.20119 15.5295 2.91854C15.5096 4.18559 16.7395 4.88934 17.6594 5.31181C18.5996 5.74352 18.9192 6.02529 18.9192 6.4101C18.9096 7.00109 18.1594 7.27351 17.4598 7.27351C16.4895 7.27351 15.9696 7.13306 15.1796 6.80426L14.8596 6.66331L14.5195 8.64359C15.0895 8.88733 16.1396 9.10362 17.2299 9.1131C19.7798 9.1131 21.4399 7.93049 21.4595 6.10039C21.4692 5.09615 20.8198 4.32666 19.4197 3.69788C18.5697 3.29424 18.0491 3.02206 18.0491 2.60907C18.0591 2.23362 18.4894 1.84906 19.4489 1.84906C20.2389 1.83023 20.8194 2.00847 21.2591 2.18684L21.4789 2.28052L21.8094 0.375575Z" fill="#15195A"/>
<path fill-rule="evenodd" clip-rule="evenodd" d="M26.1597 0.159912H28.0395L30 8.9815H27.7499C27.7499 8.9815 27.5297 7.96791 27.4599 7.65819H24.3398C24.2495 7.89269 23.8297 8.9815 23.8297 8.9815H21.2798L24.8895 0.891853C25.1396 0.319323 25.58 0.159912 26.1597 0.159912ZM26.0101 3.38817C26.0101 3.38817 25.24 5.34961 25.0398 5.85641H27.0598C26.9598 5.41535 26.4996 3.30372 26.4996 3.30372L26.3298 2.54359C26.2583 2.73933 26.1549 3.00843 26.0851 3.18994C26.0378 3.31299 26.006 3.39578 26.0101 3.38817Z" fill="#15195A"/>
<path fill-rule="evenodd" clip-rule="evenodd" d="M6.15998 6.17548L8.53994 0.159912H11.1097L7.28983 8.97227H4.71997L2.55395 1.30702C1.80659 0.896902 0.953646 0.567061 0 0.338165L0.0400004 0.15992H3.94994C4.47992 0.178505 4.90995 0.33804 5.04989 0.901466L5.89952 4.9542C5.89965 4.95462 5.89978 4.95503 5.89991 4.95545L6.15998 6.17548Z" fill="#15195A"/>
</svg>
