<svg width="27" height="27" viewBox="0 0 27 27" fill="none" xmlns="http://www.w3.org/2000/svg">
<path d="M13.5 26C20.4037 26 26 20.4037 26 13.5C26 6.59644 20.4037 1 13.5 1C6.59644 1 1 6.59644 1 13.5C1 20.4037 6.59644 26 13.5 26Z" stroke="#FF4218" stroke-width="2" stroke-linecap="round" stroke-linejoin="round"/>
<path d="M8 18.222V13.3331C8 12.6581 8.54721 12.1108 9.22222 12.1108H17.7778C18.4528 12.1108 19 12.6581 19 13.3331V18.222C19 18.8969 18.4528 19.4442 17.7778 19.4442H9.22222C8.54721 19.4442 8 18.8969 8 18.222Z" stroke="#FF4218" stroke-width="2" stroke-linejoin="round"/>
<path d="M9.83301 12.1111V9.66667C9.83301 7.64162 11.4746 6 13.4997 6C15.5247 6 17.1663 7.64162 17.1663 9.66667V12.1111" stroke="#FF4218" stroke-width="2" stroke-linecap="round" stroke-linejoin="round"/>
</svg>
