<svg width="25" height="25" viewBox="0 0 25 25" fill="none" xmlns="http://www.w3.org/2000/svg">
<g clip-path="url(#clip0_2_1526)">
<path d="M7.40131 22.9302C8.94037 23.6839 10.6708 24.1071 12.5 24.1071C18.9106 24.1071 24.1072 18.9105 24.1072 12.5C24.1072 6.08955 18.9106 0.892853 12.5 0.892853C6.08958 0.892853 0.892883 6.08955 0.892883 12.5C0.892883 14.8797 1.60899 17.0921 2.83745 18.9334M7.40131 22.9302L0.892883 24.1071L2.83745 18.9334M7.40131 22.9302L7.41074 22.9286M2.83745 18.9334L2.83931 18.9286" stroke="#0094FF" stroke-width="2" stroke-linecap="round" stroke-linejoin="round"/>
<path d="M12.2458 19.2728V6.54548H13.0611V19.2728H12.2458ZM14.4084 10.7465C14.3687 10.3454 14.198 10.0339 13.8964 9.81182C13.5948 9.58976 13.1854 9.47872 12.6684 9.47872C12.3171 9.47872 12.0204 9.52844 11.7785 9.62787C11.5365 9.72399 11.3509 9.85822 11.2217 10.0306C11.0957 10.2029 11.0327 10.3985 11.0327 10.6172C11.0261 10.7995 11.0642 10.9586 11.1471 11.0945C11.2333 11.2304 11.3509 11.348 11.5001 11.4475C11.6492 11.5436 11.8216 11.6281 12.0171 11.701C12.2127 11.7706 12.4215 11.8303 12.6435 11.88L13.5583 12.0988C14.0024 12.1982 14.4101 12.3308 14.7813 12.4965C15.1525 12.6622 15.474 12.866 15.7458 13.108C16.0176 13.3499 16.228 13.635 16.3772 13.9631C16.5297 14.2912 16.6075 14.6674 16.6109 15.0916C16.6075 15.7148 16.4485 16.255 16.1336 16.7124C15.822 17.1665 15.3713 17.5194 14.7813 17.7713C14.1947 18.0199 13.487 18.1442 12.6584 18.1442C11.8365 18.1442 11.1206 18.0183 10.5107 17.7664C9.90418 17.5145 9.43022 17.1416 9.08884 16.6478C8.75077 16.1506 8.57345 15.5358 8.55688 14.8033H10.64C10.6632 15.1447 10.761 15.4297 10.9333 15.6584C11.109 15.8838 11.3426 16.0545 11.6343 16.1705C11.9293 16.2832 12.2624 16.3395 12.6336 16.3395C12.9982 16.3395 13.3147 16.2865 13.5832 16.1804C13.8549 16.0744 14.0654 15.9269 14.2145 15.738C14.3637 15.549 14.4383 15.3319 14.4383 15.0867C14.4383 14.858 14.3703 14.6658 14.2344 14.51C14.1019 14.3542 13.9063 14.2216 13.6478 14.1122C13.3926 14.0029 13.0794 13.9034 12.7082 13.814L11.5995 13.5355C10.7411 13.3267 10.0633 13.0003 9.56611 12.5561C9.06895 12.112 8.82203 11.5138 8.82535 10.7614C8.82203 10.1449 8.98609 9.60633 9.31753 9.14563C9.65229 8.68493 10.1113 8.32531 10.6947 8.06679C11.278 7.80827 11.9409 7.67901 12.6833 7.67901C13.439 7.67901 14.0985 7.80827 14.662 8.06679C15.2288 8.32531 15.6696 8.68493 15.9844 9.14563C16.2993 9.60633 16.4617 10.1399 16.4717 10.7465H14.4084Z" fill="#0094FF"/>
</g>
<defs>
<clipPath id="clip0_2_1526">
<rect width="25" height="25" fill="white"/>
</clipPath>
</defs>
</svg>
