<svg width="29" height="35" viewBox="0 0 29 35" fill="none" xmlns="http://www.w3.org/2000/svg">
<path d="M18.0585 26.8997L14.3766 30.2825C13.1033 31.4524 11.6056 32.0009 9.88355 31.928C8.16152 31.8551 6.71556 31.182 5.54566 29.9086C4.37577 28.6353 3.82728 27.1376 3.90018 25.4156C3.97309 23.6936 4.64621 22.2476 5.91954 21.0777L9.60146 17.6949L11.2929 19.5358L7.61095 22.9187C6.84388 23.6234 6.43854 24.4909 6.39492 25.5212C6.3513 26.5515 6.68187 27.4502 7.38662 28.2172C8.09138 28.9843 8.95889 29.3896 9.98917 29.4332C11.0194 29.4769 11.9181 29.1463 12.6852 28.4415L16.3671 25.0587L18.0585 26.8997ZM11.9142 25.7549L10.2228 23.9139L17.5867 17.1483L19.2781 18.9892L11.9142 25.7549ZM19.8995 25.2083L18.2081 23.3673L21.89 19.9845C22.657 19.2797 23.0624 18.4122 23.106 17.3819C23.1496 16.3517 22.8191 15.453 22.1143 14.6859C21.4095 13.9189 20.542 13.5135 19.5118 13.4699C18.4815 13.4263 17.5828 13.7569 16.8157 14.4616L13.1338 17.8444L11.4424 16.0035L15.1243 12.6207C16.3977 11.4508 17.8953 10.9023 19.6174 10.9752C21.3394 11.0481 22.7854 11.7212 23.9553 12.9945C25.1252 14.2679 25.6736 15.7655 25.6007 17.4876C25.5278 19.2096 24.8547 20.6556 23.5814 21.8254L19.8995 25.2083Z" fill="#0094FF"/>
<path d="M5.718 16.4545V1.90909H6.64981V16.4545H5.718ZM8.18959 6.71023C8.14413 6.25189 7.94906 5.89583 7.60436 5.64205C7.25966 5.38826 6.79186 5.26136 6.20095 5.26136C5.79943 5.26136 5.46042 5.31818 5.1839 5.43182C4.90739 5.54167 4.69527 5.69508 4.54754 5.89205C4.4036 6.08902 4.33163 6.3125 4.33163 6.5625C4.32406 6.77083 4.36762 6.95265 4.46231 7.10795C4.5608 7.26326 4.69527 7.39773 4.86572 7.51136C5.03618 7.62121 5.23315 7.7178 5.45663 7.80114C5.68012 7.88068 5.91875 7.94886 6.17254 8.00568L7.218 8.25568C7.72557 8.36932 8.19148 8.52083 8.61572 8.71023C9.03997 8.89962 9.40739 9.13258 9.718 9.40909C10.0286 9.68561 10.2691 10.0114 10.4396 10.3864C10.6138 10.7614 10.7028 11.1913 10.7066 11.6761C10.7028 12.3883 10.521 13.0057 10.1612 13.5284C9.80512 14.0473 9.28997 14.4508 8.61572 14.7386C7.94527 15.0227 7.13656 15.1648 6.18959 15.1648C5.25019 15.1648 4.43201 15.0208 3.73504 14.733C3.04186 14.4451 2.50019 14.0189 2.11004 13.4545C1.72368 12.8864 1.52103 12.1837 1.50209 11.3466H3.88277C3.90928 11.7367 4.02103 12.0625 4.218 12.3239C4.41875 12.5814 4.6858 12.7765 5.01913 12.9091C5.35625 13.0379 5.73693 13.1023 6.16118 13.1023C6.57784 13.1023 6.93959 13.0417 7.2464 12.9205C7.55701 12.7992 7.79754 12.6307 7.968 12.4148C8.13845 12.1989 8.22368 11.9508 8.22368 11.6705C8.22368 11.4091 8.14603 11.1894 7.99072 11.0114C7.83921 10.8333 7.61572 10.6818 7.32027 10.5568C7.0286 10.4318 6.67065 10.3182 6.2464 10.2159L4.97936 9.89773C3.9983 9.65909 3.22368 9.28598 2.6555 8.77841C2.08731 8.27083 1.80512 7.58712 1.8089 6.72727C1.80512 6.02273 1.99262 5.4072 2.3714 4.88068C2.75398 4.35417 3.2786 3.94318 3.94527 3.64773C4.61193 3.35227 5.36951 3.20455 6.218 3.20455C7.08163 3.20455 7.83542 3.35227 8.47936 3.64773C9.12709 3.94318 9.63087 4.35417 9.99072 4.88068C10.3506 5.4072 10.5362 6.01705 10.5475 6.71023H8.18959Z" fill="#0094FF"/>
</svg>
