<svg width="40" height="40" viewBox="0 0 40 40" fill="none" xmlns="http://www.w3.org/2000/svg">
<g clip-path="url(#clip0_1018_1146)">
<path d="M6.66667 6.66667H16.6667V16.6667H6.66667V6.66667ZM33.3333 6.66667V16.6667H23.3333V6.66667H33.3333ZM23.3333 25H26.6667V21.6667H23.3333V18.3333H26.6667V21.6667H30V18.3333H33.3333V21.6667H30V25H33.3333V30H30V33.3333H26.6667V30H21.6667V33.3333H18.3333V26.6667H23.3333V25ZM26.6667 25V30H30V25H26.6667ZM6.66667 33.3333V23.3333H16.6667V33.3333H6.66667ZM10 10V13.3333H13.3333V10H10ZM26.6667 10V13.3333H30V10H26.6667ZM10 26.6667V30H13.3333V26.6667H10ZM6.66667 18.3333H10V21.6667H6.66667V18.3333ZM15 18.3333H21.6667V25H18.3333V21.6667H15V18.3333ZM18.3333 10H21.6667V16.6667H18.3333V10ZM3.33333 3.33333V10H0V3.33333C0 2.44928 0.35119 1.60143 0.976311 0.976311C1.60143 0.35119 2.44928 0 3.33333 0L10 0V3.33333H3.33333ZM36.6667 0C37.5507 0 38.3986 0.35119 39.0237 0.976311C39.6488 1.60143 40 2.44928 40 3.33333V10H36.6667V3.33333H30V0H36.6667ZM3.33333 30V36.6667H10V40H3.33333C2.44928 40 1.60143 39.6488 0.976311 39.0237C0.35119 38.3986 0 37.5507 0 36.6667V30H3.33333ZM36.6667 36.6667V30H40V36.6667C40 37.5507 39.6488 38.3986 39.0237 39.0237C38.3986 39.6488 37.5507 40 36.6667 40H30V36.6667H36.6667Z" fill="white"/>
</g>
<defs>
<clipPath id="clip0_1018_1146">
<rect width="40" height="40" fill="white"/>
</clipPath>
</defs>
</svg>
