<svg width="56" height="53" viewBox="0 0 56 53" fill="none" xmlns="http://www.w3.org/2000/svg">
<g filter="url(#filter0_f_4_107)">
<rect x="19" y="19" width="18" height="15" fill="#D9D9D9"/>
</g>
<path d="M38.5 30.5V33C38.5 34.6569 37.1569 36 35.5 36H20C18.3431 36 17 34.6569 17 33V20C17 18.3431 18.3431 17 20 17H35.5C37.1569 17 38.5 18.3431 38.5 20V22.5" stroke="black" stroke-width="2"/>
<path d="M26.6588 32.2727V19.5455H27.4742V32.2727H26.6588ZM28.8215 23.7464C28.7817 23.3454 28.611 23.0339 28.3094 22.8118C28.0078 22.5897 27.5985 22.4787 27.0814 22.4787C26.7301 22.4787 26.4334 22.5284 26.1915 22.6278C25.9495 22.724 25.7639 22.8582 25.6347 23.0305C25.5087 23.2029 25.4458 23.3984 25.4458 23.6172C25.4391 23.7995 25.4772 23.9586 25.5601 24.0945C25.6463 24.2304 25.7639 24.348 25.9131 24.4474C26.0622 24.5436 26.2346 24.6281 26.4301 24.701C26.6257 24.7706 26.8345 24.8303 27.0566 24.88L27.9713 25.0987C28.4155 25.1982 28.8231 25.3307 29.1943 25.4964C29.5655 25.6622 29.887 25.866 30.1588 26.108C30.4306 26.3499 30.6411 26.6349 30.7902 26.9631C30.9427 27.2912 31.0206 27.6674 31.0239 28.0916C31.0206 28.7147 30.8615 29.255 30.5466 29.7124C30.2351 30.1664 29.7843 30.5194 29.1943 30.7713C28.6077 31.0199 27.9001 31.1442 27.0715 31.1442C26.2495 31.1442 25.5336 31.0182 24.9237 30.7663C24.3172 30.5144 23.8432 30.1416 23.5019 29.6477C23.1638 29.1506 22.9865 28.5357 22.9699 27.8033H25.053C25.0762 28.1446 25.174 28.4297 25.3463 28.6584C25.522 28.8838 25.7557 29.0545 26.0473 29.1705C26.3423 29.2831 26.6754 29.3395 27.0466 29.3395C27.4112 29.3395 27.7277 29.2865 27.9962 29.1804C28.268 29.0743 28.4784 28.9268 28.6276 28.7379C28.7767 28.549 28.8513 28.3319 28.8513 28.0866C28.8513 27.858 28.7834 27.6657 28.6475 27.5099C28.5149 27.3542 28.3193 27.2216 28.0608 27.1122C27.8056 27.0028 27.4924 26.9034 27.1212 26.8139L26.0125 26.5355C25.1541 26.3267 24.4763 26.0002 23.9791 25.5561C23.482 25.112 23.2351 24.5137 23.2384 23.7614C23.2351 23.1449 23.3991 22.6063 23.7306 22.1456C24.0653 21.6849 24.5244 21.3253 25.1077 21.0668C25.691 20.8082 26.3539 20.679 27.0963 20.679C27.852 20.679 28.5116 20.8082 29.075 21.0668C29.6418 21.3253 30.0826 21.6849 30.3975 22.1456C30.7123 22.6063 30.8747 23.1399 30.8847 23.7464H28.8215Z" fill="black"/>
<path d="M40.5 26L33.5 25.9355" stroke="black" stroke-width="2" stroke-linecap="round" stroke-linejoin="round"/>
<path d="M35.5014 24L33.5014 26L35.5014 28" stroke="black" stroke-width="2" stroke-linecap="round" stroke-linejoin="round"/>
<defs>
<filter id="filter0_f_4_107" x="0" y="0" width="56" height="53" filterUnits="userSpaceOnUse" color-interpolation-filters="sRGB">
<feFlood flood-opacity="0" result="BackgroundImageFix"/>
<feBlend mode="normal" in="SourceGraphic" in2="BackgroundImageFix" result="shape"/>
<feGaussianBlur stdDeviation="9.5" result="effect1_foregroundBlur_4_107"/>
</filter>
</defs>
</svg>
