<svg width="22" height="23" viewBox="0 0 22 23" fill="none" xmlns="http://www.w3.org/2000/svg">
<path d="M17.7353 17.5436V9.03564H2.26367V17.5436C2.26367 18.348 2.92016 19 3.72997 19H16.269C17.0788 19 17.7353 18.348 17.7353 17.5436Z" stroke="#FC5314" stroke-width="1.7" stroke-linecap="round" stroke-linejoin="round"/>
<path d="M9.99951 18.9998V9.03271" stroke="#FC5314" stroke-width="1.7" stroke-linecap="round" stroke-linejoin="round"/>
<path d="M19 6.70417V7.57917C19 8.3835 18.3435 9.03554 17.5337 9.03554H2.46629C1.65649 9.03554 1 8.3835 1 7.57917V6.70417C1 5.89985 1.65649 5.2478 2.46629 5.2478H17.5337C18.3435 5.2478 19 5.89985 19 6.70417Z" stroke="#FC5314" stroke-width="1.7" stroke-linecap="round" stroke-linejoin="round"/>
<path d="M10.0007 5.24775C10.0007 3.97343 8.50382 1 6.25856 1C2.60586 1 3.93645 5.24775 5.68473 5.24775" stroke="#FC5314" stroke-width="1.7" stroke-linecap="round" stroke-linejoin="round"/>
<path d="M9.99951 5.24775C9.99951 3.97343 11.4963 1 13.7416 1C17.3943 1 16.0637 5.24775 14.3154 5.24775" stroke="#FC5314" stroke-width="1.7" stroke-linecap="round" stroke-linejoin="round"/>
<circle cx="16" cy="17" r="5.4" fill="#F2F2F2" stroke="#FC5314" stroke-width="1.2"/>
<path d="M12.9012 18.1871C13.5566 18.1871 14.088 17.6557 14.088 17.0002C14.088 16.3447 13.5566 15.8134 12.9012 15.8134C12.2457 15.8134 11.7143 16.3447 11.7143 17.0002C11.7143 17.6557 12.2457 18.1871 12.9012 18.1871Z" fill="#F2F2F2" stroke="#FC5314" stroke-opacity="0.89" stroke-width="1.2" stroke-linecap="round" stroke-linejoin="round"/>
<path d="M17.3848 20.4289C18.0403 20.4289 18.5717 19.8975 18.5717 19.242C18.5717 18.5866 18.0403 18.0552 17.3848 18.0552C16.7293 18.0552 16.1979 18.5866 16.1979 19.242C16.1979 19.8975 16.7293 20.4289 17.3848 20.4289Z" fill="#F2F2F2" stroke="#FC5314" stroke-opacity="0.89" stroke-width="1.2" stroke-linecap="round" stroke-linejoin="round"/>
<path d="M17.3848 15.9451C18.0403 15.9451 18.5717 15.4138 18.5717 14.7583C18.5717 14.1028 18.0403 13.5714 17.3848 13.5714C16.7293 13.5714 16.1979 14.1028 16.1979 14.7583C16.1979 15.4138 16.7293 15.9451 17.3848 15.9451Z" fill="#F2F2F2" stroke="#FC5314" stroke-opacity="0.89" stroke-width="1.2" stroke-linecap="round" stroke-linejoin="round"/>
<path d="M13.9609 16.4726L16.3241 15.2858L13.9609 16.4726Z" fill="#F2F2F2"/>
<path d="M13.9609 16.4726L16.3241 15.2858" stroke="#FC5314" stroke-opacity="0.89" stroke-width="1.2" stroke-linecap="round" stroke-linejoin="round"/>
<path d="M13.9609 17.5277L16.3241 18.7146L13.9609 17.5277Z" fill="#F2F2F2"/>
<path d="M13.9609 17.5277L16.3241 18.7146" stroke="#FC5314" stroke-opacity="0.89" stroke-width="1.2" stroke-linecap="round" stroke-linejoin="round"/>
</svg>
