<svg width="25" height="25" viewBox="0 0 25 25" fill="none" xmlns="http://www.w3.org/2000/svg">
<g clip-path="url(#clip0_2_1530)">
<path d="M17.5107 7.56982C17.4307 7.34374 17.3074 7.13815 17.1507 6.96308C16.8175 6.59071 16.3331 6.35637 15.794 6.35637H14.3852C13.4879 6.35637 12.7604 7.0838 12.7604 7.9811C12.7604 8.74464 13.2921 9.40515 14.038 9.56832L16.183 10.0375C17.0186 10.2203 17.6142 10.9608 17.6142 11.8162C17.6142 12.8214 16.7993 13.637 15.794 13.637H14.5806C13.7881 13.637 13.1139 13.1305 12.864 12.4236" stroke="#0094FF" stroke-width="2" stroke-linecap="round" stroke-linejoin="round"/>
<path d="M15.1873 6.35639V4.53621" stroke="#0094FF" stroke-width="2" stroke-linecap="round" stroke-linejoin="round"/>
<path d="M15.1873 15.4572V13.637" stroke="#0094FF" stroke-width="2" stroke-linecap="round" stroke-linejoin="round"/>
<path d="M15.1875 18.7304C20.0111 18.7304 23.9214 14.82 23.9214 9.99642C23.9214 5.17281 20.0111 1.2625 15.1875 1.2625C10.3639 1.2625 6.45355 5.17281 6.45355 9.99642C6.45355 14.82 10.3639 18.7304 15.1875 18.7304Z" stroke="#0094FF" stroke-width="2" stroke-linecap="round" stroke-linejoin="round"/>
<path d="M2.1481 10.9532C1.47763 12.1894 1.09686 13.6056 1.09686 15.1108C1.09686 19.9341 5.00688 23.8441 9.83012 23.8441C11.197 23.8441 12.4906 23.53 13.6426 22.9702" stroke="#0094FF" stroke-width="2" stroke-linecap="round" stroke-linejoin="round"/>
</g>
<defs>
<clipPath id="clip0_2_1530">
<rect width="25" height="25" fill="white"/>
</clipPath>
</defs>
</svg>
