<svg width="34" height="34" viewBox="0 0 34 34" fill="none" xmlns="http://www.w3.org/2000/svg">
<path d="M28.5385 2H6.61538C5.39132 2 4.21737 2.48626 3.35182 3.35182C2.48626 4.21737 2 5.39132 2 6.61538V32L7.76923 28.5385L13.5385 32L19.3077 28.5385L25.0769 32V5.46154C25.0769 4.54349 25.4415 3.66302 26.0907 3.01386C26.7398 2.3647 27.6205 2 28.5385 2C29.4565 2 30.3371 2.3647 30.9862 3.01386C31.6354 3.66302 32 4.54349 32 5.46154V13.5385H25.0769" fill="#FFF8F8"/>
<path d="M28.5385 2H6.61538C5.39132 2 4.21737 2.48626 3.35182 3.35182C2.48626 4.21737 2 5.39132 2 6.61538V32L7.76923 28.5385L13.5385 32L19.3077 28.5385L25.0769 32V5.46154C25.0769 4.54349 25.4415 3.66302 26.0907 3.01386C26.7398 2.3647 27.6205 2 28.5385 2ZM28.5385 2C29.4565 2 30.3371 2.3647 30.9862 3.01386C31.6354 3.66302 32 4.54349 32 5.46154V13.5385H25.0769" stroke="#0094FF" stroke-width="2.5" stroke-linecap="round" stroke-linejoin="round"/>
<path d="M17.4656 11.7439C17.3305 11.3617 17.1221 11.0142 16.8572 10.7183C16.2938 10.0888 15.475 9.69263 14.5637 9.69263H12.1821C10.6652 9.69263 9.43555 10.9223 9.43555 12.4392C9.43555 13.7299 10.3343 14.8465 11.5952 15.1223L15.2213 15.9155C16.6338 16.2245 17.6407 17.4763 17.6407 18.9223C17.6407 20.6216 16.2631 22.0003 14.5637 22.0003H12.5125C11.1728 22.0003 10.033 21.1441 9.61063 19.949" fill="#FFF8F8"/>
<path d="M17.4656 11.7439C17.3305 11.3617 17.1221 11.0142 16.8572 10.7183C16.2938 10.0888 15.475 9.69263 14.5637 9.69263H12.1821C10.6652 9.69263 9.43555 10.9223 9.43555 12.4392C9.43555 13.7299 10.3343 14.8465 11.5952 15.1223L15.2213 15.9155C16.6338 16.2245 17.6407 17.4763 17.6407 18.9223C17.6407 20.6216 16.2631 22.0003 14.5637 22.0003H12.5125C11.1728 22.0003 10.033 21.1441 9.61063 19.949" stroke="#0094FF" stroke-width="2.5" stroke-linecap="round" stroke-linejoin="round"/>
<path d="M13.5386 9.69239V6.61548V9.69239Z" fill="#FFF8F8"/>
<path d="M13.5386 9.69239V6.61548" stroke="#0094FF" stroke-width="2.5" stroke-linecap="round" stroke-linejoin="round"/>
<path d="M13.5386 25.0772V22.0002V25.0772Z" fill="#E0F2FF"/>
<path d="M13.5386 25.0772V22.0002" stroke="#0094FF" stroke-width="2.5" stroke-linecap="round" stroke-linejoin="round"/>
</svg>
