<svg width="61" height="26" viewBox="0 0 61 26" fill="none" xmlns="http://www.w3.org/2000/svg">
<rect x="12" width="49" height="26" rx="2" fill="#FF5B5B"/>
<path d="M36.6345 19.3636V5.72727H37.508V19.3636H36.6345ZM38.9516 10.2283C38.909 9.79865 38.7261 9.46484 38.4029 9.22692C38.0798 8.98899 37.6412 8.87003 37.0872 8.87003C36.7108 8.87003 36.393 8.9233 36.1337 9.02983C35.8745 9.13281 35.6756 9.27663 35.5372 9.46129C35.4022 9.64595 35.3347 9.85547 35.3347 10.0898C35.3276 10.2852 35.3685 10.4556 35.4573 10.6012C35.5496 10.7468 35.6756 10.8729 35.8354 10.9794C35.9953 11.0824 36.1799 11.1729 36.3894 11.2511C36.5989 11.3256 36.8227 11.3896 37.0606 11.4428L38.0407 11.6772C38.5166 11.7837 38.9533 11.9258 39.3511 12.1033C39.7488 12.2809 40.0933 12.4993 40.3845 12.7585C40.6756 13.0178 40.9011 13.3232 41.0609 13.6747C41.2243 14.0263 41.3078 14.4293 41.3113 14.8839C41.3078 15.5515 41.1373 16.1303 40.7999 16.6204C40.4661 17.1069 39.9832 17.4851 39.3511 17.755C38.7225 18.0213 37.9644 18.1545 37.0766 18.1545C36.1959 18.1545 35.4288 18.0195 34.7754 17.7496C34.1256 17.4798 33.6178 17.0803 33.252 16.5511C32.8898 16.0185 32.6998 15.3597 32.682 14.5749H34.9139C34.9388 14.9407 35.0435 15.2461 35.2282 15.4911C35.4164 15.7326 35.6668 15.9155 35.9793 16.0398C36.2953 16.1605 36.6522 16.2209 37.0499 16.2209C37.4406 16.2209 37.7797 16.1641 38.0673 16.0504C38.3585 15.9368 38.584 15.7788 38.7438 15.5763C38.9036 15.3739 38.9835 15.1413 38.9835 14.8786C38.9835 14.6335 38.9107 14.4276 38.7651 14.2607C38.6231 14.0937 38.4136 13.9517 38.1366 13.8345C37.8631 13.7173 37.5276 13.6108 37.1298 13.5149L35.942 13.2166C35.0222 12.9929 34.296 12.6431 33.7634 12.1673C33.2307 11.6914 32.9661 11.0504 32.9697 10.2443C32.9661 9.58381 33.1419 9.00675 33.497 8.51314C33.8557 8.01953 34.3475 7.63423 34.9725 7.35724C35.5975 7.08026 36.3078 6.94176 37.1032 6.94176C37.9129 6.94176 38.6195 7.08026 39.2232 7.35724C39.8305 7.63423 40.3028 8.01953 40.6401 8.51314C40.9775 9.00675 41.1515 9.57848 41.1622 10.2283H38.9516Z" fill="white"/>
<rect x="4.25" y="8.25" width="21.5" height="3.5" rx="1.75" fill="#FF5B5B" stroke="white" stroke-width="0.5"/>
<rect x="0.25" y="15.25" width="21.5" height="3.5" rx="1.75" fill="#FF5B5B" stroke="white" stroke-width="0.5"/>
</svg>
