<svg width="32" height="29" viewBox="0 0 32 29" fill="none" xmlns="http://www.w3.org/2000/svg">
<path d="M27.5385 20.6154V25.2308C27.5385 25.8428 27.2952 26.4298 26.8625 26.8625C26.4298 27.2952 25.8428 27.5385 25.2308 27.5385H3.30769C2.69565 27.5385 2.10868 27.2952 1.67591 26.8625C1.24313 26.4298 1 25.8428 1 25.2308V7.92308C1 4.09958 4.09958 1 7.92308 1H22.9231V6.76923" stroke="#0094FF" stroke-width="2" stroke-linecap="round" stroke-linejoin="round"/>
<path d="M29.8461 13.6923H21.7692C21.132 13.6923 20.6154 14.2089 20.6154 14.8462V19.4616C20.6154 20.0987 21.132 20.6154 21.7692 20.6154H29.8461C30.4833 20.6154 31 20.0987 31 19.4616V14.8462C31 14.2089 30.4833 13.6923 29.8461 13.6923Z" stroke="#0094FF" stroke-width="2" stroke-linecap="round" stroke-linejoin="round"/>
<path d="M27.5384 13.6924V9.07701C27.5384 8.46496 27.2952 7.878 26.8625 7.44522C26.4298 7.01246 25.8427 6.76932 25.2307 6.76932H22.923H7.92303" stroke="#0094FF" stroke-width="2" stroke-linecap="round" stroke-linejoin="round"/>
</svg>
