<svg width="48" height="16" viewBox="0 0 48 16" fill="none" xmlns="http://www.w3.org/2000/svg">
<path d="M18.224 0.524048L11.94 15.516H7.84L4.748 3.55005C4.56 2.81405 4.398 2.54405 3.826 2.23405C2.894 1.72805 1.354 1.25405 0 0.958048L0.092 0.524048H6.692C7.1233 0.523615 7.54054 0.677377 7.86842 0.957577C8.19629 1.23778 8.41321 1.62596 8.48 2.05205L10.114 10.728L14.15 0.524048H18.224ZM34.29 10.622C34.306 6.66405 28.818 6.44605 28.856 4.67805C28.868 4.14005 29.38 3.56805 30.5 3.42205C31.8126 3.29739 33.1345 3.52956 34.326 4.09405L35.006 0.914047C33.8459 0.477938 32.6173 0.2524 31.378 0.248047C27.544 0.248047 24.846 2.28805 24.822 5.20605C24.798 7.36405 26.748 8.56605 28.218 9.28605C29.73 10.02 30.238 10.492 30.23 11.148C30.22 12.156 29.026 12.598 27.91 12.616C25.96 12.646 24.83 12.09 23.926 11.67L23.224 14.954C24.13 15.37 25.802 15.734 27.536 15.75C31.61 15.75 34.276 13.738 34.29 10.622ZM44.412 15.516H48L44.87 0.524048H41.558C41.2041 0.520768 40.8574 0.623885 40.5629 0.820024C40.2683 1.01616 40.0394 1.29628 39.906 1.62405L34.088 15.516H38.16L38.97 13.276H43.946L44.412 15.516ZM40.086 10.204L42.126 4.57405L43.302 10.204H40.086ZM23.766 0.524048L20.56 15.516H16.68L19.89 0.524048H23.766Z" fill="white"/>
</svg>
